<svg id="Layer_1" data-name="Layer 1" xmlns="http://www.w3.org/2000/svg" viewBox="0 0 200 200"><defs><style>.cls-1{fill:#231f20;opacity:0.4;}.cls-2{fill:#ad8ce9;}.cls-3{fill:#c1a1ff;}.cls-4{fill:#5e468b;}.cls-5{fill:#a67aff;}.cls-6{fill:#e4d8ff;}</style></defs><path class="cls-1" d="M295.49,387l-8.9-4.76a210.21,210.21,0,0,1-41.87-29.49c.94-4.41,2.05-8.78,3.36-13.12l2.28-7.49-7.5,2.27c-4.33,1.31-8.71,2.42-13.11,3.37a210.32,210.32,0,0,1-29.5-41.88l-4.76-8.9-4.76,8.9a209.87,209.87,0,0,1-29.49,41.88c-4.4-.95-8.78-2.06-13.11-3.37l-7.5-2.27,2.27,7.49c1.32,4.34,2.43,8.71,3.37,13.12a210.21,210.21,0,0,1-41.87,29.49L95.49,387l8.91,4.76a210.21,210.21,0,0,1,41.87,29.49c-.94,4.41-2.05,8.78-3.37,13.12l-2.27,7.49,7.5-2.27c4.33-1.32,8.71-2.42,13.11-3.37a209.87,209.87,0,0,1,29.49,41.88l4.76,8.9,4.76-8.9a210.32,210.32,0,0,1,29.5-41.88c4.4,1,8.78,2.05,13.11,3.37l7.5,2.27-2.28-7.49c-1.31-4.34-2.42-8.71-3.36-13.12a210.21,210.21,0,0,1,41.87-29.49Z" transform="translate(-95.49 -286.99)"/><path class="cls-2" d="M242.24,344.36l2-6.66-6.66,2a145,145,0,0,1-84.21,0l-6.66-2,2,6.66a145.17,145.17,0,0,1,0,84.21l-2,6.67,6.66-2a145,145,0,0,1,84.21,0l6.66,2-2-6.67A145,145,0,0,1,242.24,344.36Z" transform="translate(-95.49 -286.99)"/><path class="cls-3" d="M195.49,297.58l-4.23,7.92a187,187,0,0,1-76.74,76.74l-7.91,4.23,7.91,4.23a187,187,0,0,1,76.74,76.74l4.23,7.92,4.24-7.92a187,187,0,0,1,76.74-76.74l7.91-4.23-7.91-4.23a187,187,0,0,1-76.74-76.74Z" transform="translate(-95.49 -286.99)"/><path class="cls-4" d="M251.17,383a128.46,128.46,0,0,1-52.76-52.76l-2.91-5.44-2.91,5.44A128.46,128.46,0,0,1,139.83,383L134.39,386l5.44,2.91a128.46,128.46,0,0,1,52.76,52.76l2.91,5.44,2.91-5.44a128.46,128.46,0,0,1,52.76-52.76l5.44-2.91Z" transform="translate(-95.49 -286.99)"/><path class="cls-5" d="M206.87,428a128.62,128.62,0,0,1,20.54-22.73L195.5,369.74l-31.92,35.5A128.52,128.52,0,0,1,184.12,428Q195.49,427.48,206.87,428Z" transform="translate(-95.49 -286.99)"/><path class="cls-6" d="M174,415.41a129,129,0,0,1,18.58,26.21l2.9,5.44,2.91-5.44A129,129,0,0,1,217,415.41l-21.49-23.89Z" transform="translate(-95.49 -286.99)"/></svg>